<?xml version="1.0" encoding="UTF-8" standalone="no"?>
<svg
   xmlns:dc="http://purl.org/dc/elements/1.1/"
   xmlns:cc="http://creativecommons.org/ns#"
   xmlns:rdf="http://www.w3.org/1999/02/22-rdf-syntax-ns#"
   xmlns:svg="http://www.w3.org/2000/svg"
   xmlns="http://www.w3.org/2000/svg"
   xmlns:sodipodi="http://sodipodi.sourceforge.net/DTD/sodipodi-0.dtd"
   xmlns:inkscape="http://www.inkscape.org/namespaces/inkscape"
   height="472.36862"
   width="301.50067"
   version="1.1"
   viewBox="-300 -300 603.00134 944.73723"
   font-family="'Bitstream Vera Sans', 'Liberation Sans', Arial, sans-serif"
   font-size="72px"
   text-anchor="middle"
   id="svg10"
   sodipodi:docname="no_image_available_new.svg"
   inkscape:version="1.0 (4035a4fb49, 2020-05-01)">
  <metadata
     id="metadata16">
    <rdf:RDF>
      <cc:Work
         rdf:about="">
        <dc:format>image/svg+xml</dc:format>
        <dc:type
           rdf:resource="http://purl.org/dc/dcmitype/StillImage" />
        <dc:title />
      </cc:Work>
    </rdf:RDF>
  </metadata>
  <defs
     id="defs14" />
  <sodipodi:namedview
     inkscape:document-rotation="0"
     pagecolor="#ffffff"
     bordercolor="#666666"
     borderopacity="1"
     objecttolerance="10"
     gridtolerance="10"
     guidetolerance="10"
     inkscape:pageopacity="0"
     inkscape:pageshadow="2"
     inkscape:window-width="2209"
     inkscape:window-height="1312"
     id="namedview12"
     showgrid="false"
     inkscape:zoom="1.4666666"
     inkscape:cx="186.14804"
     inkscape:cy="242.96428"
     inkscape:window-x="724"
     inkscape:window-y="0"
     inkscape:window-maximized="0"
     inkscape:current-layer="svg10" />
  <ellipse
     cy="172.39058"
     cx="2.5873451"
     stroke="#aaaaaa"
     stroke-width="10.3549"
     fill="#ffffff"
     id="circle2"
     style="fill:#ffffff"
     rx="292.35764"
     ry="287.53644" />
  <text
     y="153.83348"
     x="10.623427"
     style="font-size:101.103px;fill:#008000;stroke-width:1.40421"
     id="text8"
     transform="scale(0.93971247,1.0641553)"><tspan
       x="10.623427"
       y="142.59987"
       id="tspan4"
       style="fill:#008000;stroke-width:1.40421">NO IMAGE</tspan><tspan
       x="10.623427"
       y="266.16998"
       id="tspan6"
       style="fill:#008000;stroke-width:1.40421">AVAILABLE</tspan></text>
  <path
     style="fill:#a0a0a0;stroke:none;stroke-width:0.964236"
     d="m -25.805955,463.41222 c -70.9976,-7.03704 -136.884765,-38.55738 -185.672935,-88.82566 -46.7102,-48.12728 -73.70351,-105.3539 -81.54881,-172.88592 -1.443,-12.42126 -1.443,-46.39716 0,-58.81842 2.8771,-24.76596 8.68278,-49.471279 16.58113,-70.558879 35.53621,-94.87714 117.55664,-164.87374 217.777315,-185.852121 21.89208,-4.58248 34.47294,-5.7663 61.3082798,-5.76894 26.6617402,-0.002 37.6717802,1.02764 60.7610002,5.68568 87.331235,17.618301 163.894615,75.496261 204.094775,154.285181 21.96896,43.05724 31.74716,83.570479 31.76716,131.618279 0.0226,54.1927 -13.42448,102.75836 -41.25526,148.99832 -45.81766,76.12462 -123.12438,126.9801 -213.423375,140.39852 -15.08714,2.24196 -55.24108,3.22538 -70.38928,1.72396 z m 57.02886,-9.58464 c 63.0972,-6.2251 124.338235,-33.77348 169.071295,-76.05426 49.58336,-46.86516 79.13318,-104.49514 87.89164,-171.41198 2.24476,-17.15054 2.22178,-51.40252 -0.0458,-68.3003 C 279.81906,76.054881 253.83254,21.848701 211.4518,-21.905599 165.298,-69.555219 109.42012,-97.805979 41.208485,-107.9773 c -17.62494,-2.62812 -61.69824,-2.4221 -79.56162,0.37192 -53.33588,8.342301 -97.761785,27.269361 -138.837955,59.150061 -10.96019,8.50662 -31.30259,28.10778 -40.96287,39.4702797 -73.69517,86.6808403 -87.73066,207.6196593 -35.86522,309.0378193 43.65808,85.36938 129.58656,143.61166 226.766885,153.70246 11.26786,1.17002 46.9024,1.2141 58.4752,0.0724 z"
     id="path20" />
  <path
     style="fill:#fff6d5;stroke:none;stroke-width:0.964236"
     d="m -38.406775,461.53422 c -56.27796,-8.19928 -109.356355,-31.7874 -151.470635,-67.3138 -11.84656,-9.99342 -31.2448,-30.00806 -41.30305,-42.61548 -34.93135,-43.78442 -56.02265,-96.1415 -61.69033,-153.14022 -1.24109,-12.4814 -1.24456,-39.94436 -0.007,-52.6898 4.36938,-44.98694 19.93268,-90.201159 44.14301,-128.243459 15.29415,-24.0321003 42.46555,-54.16686 64.79368,-71.86022 41.44053,-32.8385 90.198245,-53.858141 144.635485,-62.352921 16.0196,-2.4998 67.8537,-2.50118 83.88858,-0.002 68.328595,10.64866 126.271175,40.284741 173.132875,88.552861 40.96752,42.197 69.8807,100.10842 78.0245,156.278519 8.19952,56.55426 0.42026,113.55126 -22.22288,162.82234 -34.49926,75.0699 -96.33012,130.65258 -174.937255,157.25942 -21.5062,7.2794 -46.10038,12.59264 -66.0502,14.26928 -19.05922,1.6018 -56.85006,1.08808 -70.93714,-0.9643 z m 83.47222,-9.02256 C 124.99708,439.61258 191.3725,399.26626 237.98176,335.2474 267.79636,294.29638 286.24264,242.95422 289.5897,191.6053 294.3915,117.9383 271.2488,47.451481 223.88882,-8.5029193 215.21756,-18.747779 193.64486,-39.749979 183.43338,-47.888539 c -37.38454,-29.7955 -84.828555,-50.77078 -133.255435,-58.913021 -30.62074,-5.14842 -72.30644,-4.54582 -102.47238,1.48132 -42.7048,8.532381 -78.403315,23.608561 -112.843695,47.656081 -13.29974,9.28636 -25.63229,20.04838 -41.00854,35.78616 -41.37894,42.35182 -67.29268,94.55318 -76.17219,153.443359 -2.60387,17.2692 -3.54163,47.71746 -1.98089,64.31744 9.24696,98.35002 66.27556,182.52526 154.03282,227.35516 28.65693,14.63912 56.216635,23.6766 87.366535,28.64956 17.14962,2.73788 16.86758,2.72382 48.9142598,2.44034 21.3501602,-0.1888 32.0515202,-0.68656 39.0515802,-1.8162 z"
     id="path22" />
</svg>
